<?xml version="1.0" standalone="no"?>
<!DOCTYPE svg PUBLIC "-//W3C//DTD SVG 20010904//EN"
 "http://www.w3.org/TR/2001/REC-SVG-20010904/DTD/svg10.dtd">
<svg version="1.0" xmlns="http://www.w3.org/2000/svg"
 width="900.000000pt" height="900.000000pt" viewBox="0 0 900.000000 900.000000"
 preserveAspectRatio="xMidYMid meet">
<metadata>
Created by potrace 1.10, written by Peter Selinger 2001-2011
</metadata>
<g transform="translate(0.000000,900.000000) scale(0.100000,-0.100000)"
fill="#000000" stroke="none">
<path d="M660 7461 c-6 -13 -10 -146 -10 -365 0 -331 1 -346 19 -356 13 -6
200 -10 539 -10 l519 0 11 -24 c6 -13 14 -41 17 -63 3 -21 13 -69 21 -108 24
-115 42 -205 59 -295 9 -47 23 -116 31 -155 37 -183 44 -216 59 -295 9 -47 23
-114 30 -150 7 -36 21 -103 30 -150 9 -47 23 -114 30 -150 8 -36 21 -103 30
-150 9 -47 23 -116 31 -155 37 -183 44 -216 59 -295 9 -47 23 -114 30 -150 7
-36 21 -103 30 -150 9 -47 23 -114 30 -150 8 -36 21 -103 30 -150 9 -47 23
-114 30 -150 19 -93 41 -202 60 -300 9 -47 23 -114 30 -150 8 -36 17 -83 20
-105 4 -22 13 -50 21 -63 l14 -22 2288 0 c1301 0 2293 4 2301 9 13 8 91 195
113 271 5 19 14 39 19 45 5 5 9 17 9 26 0 9 9 38 21 65 11 27 24 58 28 69 5
11 16 37 25 58 9 21 16 46 16 55 0 10 7 27 15 38 8 10 15 26 15 34 0 8 7 28
15 44 8 15 15 33 15 38 0 6 6 24 14 41 8 18 29 73 46 122 18 50 38 104 45 120
15 34 101 263 150 400 18 50 49 131 69 181 20 50 36 95 36 100 0 5 20 58 45
119 25 60 45 115 45 122 0 7 7 29 16 50 39 90 37 83 109 278 21 55 46 123 57
150 11 28 22 59 25 70 6 23 86 232 109 283 7 18 14 41 14 50 0 10 7 27 15 38
8 10 15 25 15 32 0 8 6 28 14 45 8 18 31 77 51 132 21 55 43 116 51 135 37 98
74 206 74 217 0 11 -523 13 -2642 11 l-2643 -3 -3 -364 c-2 -285 1 -366 10
-373 7 -4 955 -8 2106 -8 l2094 0 -8 -32 c-3 -18 -12 -46 -19 -63 -12 -28 -21
-52 -60 -155 -8 -22 -22 -59 -31 -82 -9 -24 -22 -60 -30 -80 -8 -21 -21 -57
-30 -80 -21 -55 -42 -113 -60 -160 -8 -21 -21 -57 -30 -80 -9 -24 -22 -59 -29
-78 -16 -45 -38 -103 -60 -160 -9 -25 -23 -62 -31 -82 -8 -21 -21 -56 -29 -78
-8 -22 -21 -57 -29 -77 -8 -21 -21 -57 -30 -80 -9 -24 -23 -62 -32 -85 -9 -24
-22 -59 -29 -78 -7 -19 -20 -54 -29 -77 -9 -24 -23 -62 -32 -85 -19 -49 -40
-105 -61 -163 -8 -22 -21 -55 -29 -73 -8 -18 -14 -39 -14 -47 0 -8 -9 -24 -20
-35 -20 -20 -33 -20 -1736 -20 -1163 0 -1722 3 -1735 10 -10 6 -19 20 -19 31
0 11 -6 48 -14 82 -17 76 -39 184 -61 297 -9 47 -23 117 -31 155 -37 183 -44
216 -59 295 -9 47 -23 114 -30 150 -7 36 -21 103 -30 150 -9 47 -23 114 -30
150 -7 36 -21 103 -30 150 -9 47 -23 114 -30 150 -7 36 -21 103 -30 150 -9 47
-23 114 -30 150 -7 36 -21 103 -30 150 -9 47 -23 114 -30 150 -8 36 -21 103
-30 150 -9 47 -23 114 -30 150 -7 36 -21 103 -30 150 -9 47 -23 114 -30 150
-8 36 -21 103 -30 150 -31 160 -47 235 -60 295 -8 33 -16 72 -20 88 l-5 27
-840 0 c-820 0 -840 0 -850 -19z"/>
<path d="M3190 3236 c-204 -54 -368 -160 -490 -316 -229 -293 -247 -684 -47
-1015 71 -118 215 -244 366 -320 225 -113 536 -110 764 5 208 107 373 294 447
510 21 63 50 224 50 282 0 61 -31 229 -54 293 -103 285 -351 501 -652 569
-107 24 -278 20 -384 -8z m280 -752 c64 -54 74 -113 29 -175 -57 -81 -156 -77
-214 8 -29 44 -31 75 -7 121 40 73 132 96 192 46z"/>
<path d="M5890 3236 c-171 -45 -302 -119 -416 -235 -134 -135 -205 -269 -244
-464 -25 -121 -25 -196 -1 -312 22 -107 33 -139 74 -225 146 -303 456 -499
791 -500 373 -1 718 247 836 600 107 322 25 665 -217 904 -172 171 -382 257
-626 255 -83 0 -134 -6 -197 -23z m270 -743 c33 -19 70 -80 70 -115 0 -55 -77
-128 -135 -128 -58 0 -135 73 -135 128 0 34 37 95 68 115 35 21 96 22 132 0z"/>
</g>
</svg>
