<?xml version="1.0" standalone="no"?>
<!DOCTYPE svg PUBLIC "-//W3C//DTD SVG 20010904//EN"
 "https://www.w3.org/TR/2001/REC-SVG-20010904/DTD/svg10.dtd">
<svg version="1.0" xmlns="https://www.w3.org/2000/svg"
 width="300.000000pt" height="65.000000pt" viewBox="0 0 300.000000 65.000000"
 preserveAspectRatio="xMidYMid meet">
<metadata>
Created by potrace 1.10, written by Peter Selinger 2001-2011
</metadata>
<g transform="translate(0.000000,65.000000) scale(0.100000,-0.100000)"
fill="#2f1e1e" stroke="none">
<path d="M1519 464 c-17 -28 -24 -57 -27 -115 -3 -55 -1 -79 7 -79 6 0 10 -4
9 -8 -8 -23 50 -81 103 -106 65 -30 107 -33 149 -11 17 9 30 13 30 10 0 -4 6
0 14 7 8 8 27 25 43 39 42 36 58 77 56 145 -1 32 -2 60 -3 62 -2 1 -3 5 -4 10
-4 18 -41 72 -51 72 -6 0 -16 -5 -23 -12 -8 -8 -5 -18 13 -40 14 -17 23 -34
19 -39 -3 -5 -1 -9 4 -9 14 0 7 -103 -11 -136 -13 -26 -57 -65 -77 -70 -3 0
-17 -4 -33 -8 -15 -5 -49 -5 -75 -1 -38 6 -55 15 -89 52 -24 25 -44 50 -44 57
-7 64 -6 115 2 111 5 -4 6 1 3 9 -3 8 4 24 15 35 25 25 26 34 7 50 -11 9 -18
4 -37 -25z"/>
<path d="M1652 493 c-34 -7 -89 -67 -101 -110 -14 -49 0 -102 37 -138 33 -34
62 -45 113 -45 69 0 128 46 144 113 6 23 4 27 -13 27 -15 0 -24 -10 -32 -36
-14 -42 -60 -74 -108 -74 -23 0 -43 10 -69 33 -32 30 -36 40 -36 81 0 39 5 52
30 78 17 17 42 31 55 32 16 1 24 8 26 24 3 22 0 24 -46 15z"/>
<path d="M451 465 c-60 -51 -65 -138 -9 -200 27 -31 36 -35 80 -35 62 0 88 13
88 45 0 18 -5 25 -20 25 -11 0 -20 -6 -20 -14 0 -19 -36 -27 -69 -15 -52 18
-68 104 -30 153 17 22 28 27 58 24 28 -2 35 -7 33 -20 -2 -13 4 -18 22 -18 21
0 24 4 23 28 -4 56 -101 73 -156 27z"/>
<path d="M1946 482 c-12 -12 -5 -32 12 -32 15 0 17 -11 17 -90 0 -79 -2 -90
-17 -90 -11 0 -18 -8 -18 -20 0 -18 7 -20 60 -20 53 0 60 2 60 20 0 13 -7 20
-20 20 -18 0 -20 7 -20 70 0 39 2 70 4 70 3 0 13 -25 22 -55 16 -51 20 -55 49
-55 29 0 33 4 49 55 9 30 19 55 22 55 2 0 4 -31 4 -70 0 -63 -2 -70 -20 -70
-13 0 -20 -7 -20 -20 0 -18 7 -20 60 -20 53 0 60 2 60 20 0 12 -7 20 -17 20
-16 0 -18 10 -17 87 1 73 4 89 18 91 16 4 22 27 9 35 -5 3 -28 2 -52 -2 -44
-6 -44 -7 -68 -71 -14 -36 -26 -66 -27 -68 -2 -1 -14 26 -26 60 -13 35 -26 66
-29 69 -8 9 -88 18 -95 11z"/>
<path d="M2707 463 c-4 -3 -7 -17 -7 -30 0 -13 -5 -22 -12 -20 -7 1 -13 -5
-13 -13 0 -8 6 -14 13 -12 8 1 12 -15 12 -59 0 -82 11 -99 61 -99 33 0 40 3
37 17 -2 12 -11 17 -26 15 -13 -2 -22 2 -22 10 -1 7 -2 34 -4 61 -4 44 -2 47
20 47 18 0 24 6 24 21 0 15 -5 20 -22 17 -18 -2 -23 2 -21 17 2 26 -24 44 -40
28z"/>
<path d="M1663 425 c-74 -32 -72 -130 2 -161 38 -15 69 -8 97 22 43 48 26 122
-33 143 -18 6 -32 11 -33 11 -1 -1 -15 -7 -33 -15z m78 -57 c14 -25 2 -57 -24
-67 -43 -17 -88 31 -65 68 21 34 70 34 89 -1z"/>
<path d="M688 417 c-31 -7 -38 -14 -38 -33 0 -27 34 -34 44 -9 6 16 66 21 66
6 0 -5 3 -16 6 -25 5 -13 -2 -16 -38 -16 -59 0 -90 -23 -86 -63 4 -45 44 -63
93 -43 19 8 35 11 35 5 0 -5 14 -9 30 -9 20 0 30 5 30 15 0 8 -4 15 -10 15 -6
0 -10 28 -10 63 0 34 -4 68 -9 75 -12 20 -71 30 -113 19z m82 -116 c0 -14 -41
-41 -62 -41 -21 0 -32 16 -24 35 6 17 86 21 86 6z"/>
<path d="M975 422 c-11 -2 -28 -11 -37 -20 -16 -14 -18 -14 -18 2 0 13 -7 17
-32 14 -37 -4 -50 -27 -19 -35 18 -5 21 -13 21 -60 0 -47 -3 -56 -20 -60 -39
-10 -14 -28 43 -31 46 -2 57 0 57 13 0 8 -9 15 -20 15 -17 0 -20 7 -20 48 0
35 5 54 18 65 23 21 42 22 42 2 0 -9 9 -15 21 -15 15 0 19 4 15 16 -3 9 -6 22
-6 29 0 16 -18 23 -45 17z"/>
<path d="M1165 422 c-11 -2 -28 -11 -37 -20 -16 -14 -18 -14 -18 1 0 12 -9 17
-30 17 -23 0 -30 -4 -30 -20 0 -11 7 -20 15 -20 12 0 15 -13 15 -60 0 -47 -3
-60 -15 -60 -8 0 -15 -7 -15 -15 0 -12 13 -15 55 -15 42 0 55 3 55 15 0 8 -9
15 -20 15 -17 0 -20 7 -20 48 0 35 5 54 18 65 23 21 42 22 42 2 0 -9 9 -15 21
-15 15 0 19 4 15 16 -3 9 -6 22 -6 29 0 16 -18 23 -45 17z"/>
<path d="M2318 416 c-39 -13 -54 -56 -20 -56 11 0 23 7 26 16 4 10 16 14 38
12 25 -2 34 -8 36 -25 3 -21 -1 -23 -40 -23 -81 0 -116 -56 -62 -99 27 -21 64
-20 92 2 8 6 12 6 12 -2 0 -6 14 -11 30 -11 20 0 30 5 30 15 0 8 -4 15 -10 15
-6 0 -10 30 -10 69 0 43 -5 72 -12 79 -20 15 -74 19 -110 8z m82 -121 c0 -17
-30 -35 -59 -35 -24 0 -33 13 -25 34 8 22 84 23 84 1z"/>
<path d="M2598 418 c-16 -5 -28 -15 -28 -21 0 -7 -5 -4 -11 6 -15 25 -69 23
-69 -3 0 -11 7 -20 15 -20 12 0 15 -13 15 -60 0 -47 -3 -60 -15 -60 -8 0 -15
-7 -15 -15 0 -12 13 -15 55 -15 47 0 55 3 55 19 0 14 -5 18 -20 14 -18 -5 -20
0 -20 41 0 33 6 52 20 66 24 24 40 26 40 5 0 -8 9 -15 20 -15 15 0 20 7 20 29
0 17 -6 31 -16 35 -9 3 -16 6 -17 5 -1 0 -14 -5 -29 -11z"/>
<path d="M1230 400 c0 -11 4 -20 9 -20 10 0 81 -145 81 -166 0 -19 -44 -46
-64 -38 -12 4 -16 0 -16 -15 0 -17 6 -21 31 -21 17 0 38 4 48 10 18 9 82 145
96 203 4 15 13 27 21 27 8 0 14 9 14 20 0 17 -7 20 -50 20 -37 0 -50 -4 -50
-15 0 -7 7 -18 16 -23 15 -8 15 -13 -1 -61 -9 -28 -20 -49 -25 -46 -5 3 -16
26 -26 52 -13 34 -15 48 -6 51 7 2 12 12 12 23 0 16 -7 19 -45 19 -38 0 -45
-3 -45 -20z"/>
</g>
</svg>