<?xml version="1.0" standalone="no"?>
<!DOCTYPE svg PUBLIC "-//W3C//DTD SVG 20010904//EN"
 "http://www.w3.org/TR/2001/REC-SVG-20010904/DTD/svg10.dtd">
<svg version="1.0" xmlns="https://www.w3.org/2000/svg"
 width="900.000000pt" height="900.000000pt" viewBox="0 0 900.000000 900.000000"
 preserveAspectRatio="xMidYMid meet">
<metadata>
Created by potrace 1.10, written by Peter Selinger 2001-2011
</metadata>
<g transform="translate(0.000000,900.000000) scale(0.100000,-0.100000)"
fill="#000000" stroke="none">
<path d="M4144 8983 c-8 -12 -33 -18 -115 -23 -137 -10 -272 -28 -333 -46 -26
-8 -65 -14 -86 -14 -22 0 -51 -5 -67 -11 -15 -7 -48 -15 -73 -19 -55 -9 -133
-28 -180 -45 -19 -7 -55 -18 -80 -24 -105 -28 -141 -40 -375 -128 -64 -24
-171 -71 -195 -85 -8 -4 -22 -11 -30 -14 -8 -3 -55 -24 -105 -48 -49 -24 -97
-47 -105 -50 -8 -3 -28 -15 -45 -26 -16 -10 -52 -31 -80 -45 -27 -14 -63 -35
-80 -45 -16 -11 -37 -23 -45 -27 -8 -4 -68 -43 -133 -88 -65 -44 -127 -85
-138 -91 -11 -6 -32 -22 -47 -36 -15 -13 -40 -33 -57 -43 -29 -18 -48 -33
-204 -164 -195 -164 -589 -582 -666 -706 -10 -16 -30 -42 -43 -57 -14 -15 -30
-36 -36 -47 -6 -11 -47 -73 -91 -138 -45 -65 -84 -125 -88 -133 -4 -8 -16 -28
-27 -45 -10 -16 -31 -52 -45 -80 -14 -27 -35 -63 -45 -80 -11 -16 -23 -37 -26
-45 -9 -22 -96 -202 -106 -220 -4 -8 -11 -22 -14 -30 -3 -8 -12 -31 -21 -50
-25 -56 -40 -92 -56 -135 -8 -22 -21 -58 -30 -80 -61 -164 -73 -198 -98 -295
-6 -25 -17 -61 -24 -80 -17 -47 -36 -125 -45 -180 -4 -25 -12 -58 -19 -73 -6
-16 -11 -45 -11 -65 0 -21 -5 -53 -11 -72 -14 -45 -37 -195 -51 -340 -15 -149
-15 -791 0 -940 14 -145 37 -295 51 -340 6 -19 11 -51 11 -72 0 -20 5 -49 11
-65 7 -15 15 -48 19 -73 9 -55 28 -133 45 -180 7 -19 18 -55 24 -80 25 -94 41
-142 96 -290 8 -22 22 -59 31 -82 9 -24 22 -58 30 -76 35 -80 48 -108 56 -122
4 -8 11 -22 14 -30 3 -8 24 -55 48 -105 24 -49 47 -97 50 -105 3 -8 15 -28 26
-45 10 -16 31 -52 45 -80 14 -27 35 -63 45 -80 11 -16 23 -37 27 -45 4 -8 43
-68 88 -133 44 -66 87 -129 95 -141 139 -209 471 -573 711 -779 160 -138 201
-172 234 -192 17 -10 42 -30 57 -43 15 -14 36 -30 47 -36 11 -6 73 -47 138
-91 65 -45 125 -84 133 -88 8 -4 29 -16 45 -27 17 -10 53 -31 80 -45 28 -14
64 -35 80 -45 17 -11 37 -23 45 -26 32 -13 87 -40 133 -66 26 -16 56 -28 66
-28 10 0 24 -7 31 -15 7 -8 19 -15 27 -15 8 0 27 -6 41 -14 49 -25 90 -42 220
-90 178 -66 195 -71 292 -97 25 -6 61 -17 80 -24 47 -17 125 -36 180 -45 25
-4 58 -12 73 -19 16 -6 45 -11 67 -11 21 0 60 -6 86 -14 142 -41 387 -59 794
-59 407 0 652 18 794 59 26 8 65 14 86 14 22 0 51 5 67 11 15 7 48 15 73 19
55 9 133 28 180 45 19 7 55 18 80 24 84 22 99 27 210 66 19 7 54 20 78 29 23
9 61 23 85 32 52 20 104 42 139 60 14 8 33 14 41 14 8 0 20 7 27 15 7 8 21 15
31 15 10 0 40 12 66 27 46 27 101 54 133 67 8 3 29 15 45 26 17 10 53 31 80
45 28 14 64 35 80 45 17 11 37 23 45 27 8 4 68 43 133 88 66 44 129 87 141 95
318 212 834 728 1046 1046 8 12 51 75 95 141 45 65 84 125 88 133 4 8 16 29
27 45 10 17 31 53 45 80 14 28 35 64 45 80 11 17 23 37 26 45 9 22 96 202 106
220 4 8 11 22 14 30 3 8 12 31 21 50 8 19 21 50 29 68 7 18 20 47 28 65 8 17
16 41 19 52 3 11 15 45 27 75 12 30 25 69 30 85 4 17 12 41 18 55 5 14 17 52
27 85 9 33 21 74 27 90 5 17 14 48 18 70 5 22 13 53 19 68 6 16 11 41 11 56 0
16 7 45 15 64 8 20 15 53 15 74 0 21 5 54 11 73 16 51 38 209 48 336 8 112 15
139 32 129 5 -4 9 131 9 345 0 214 -4 349 -9 345 -17 -10 -24 17 -32 129 -10
127 -32 285 -48 336 -6 19 -11 52 -11 73 0 21 -7 54 -15 74 -8 19 -15 48 -15
64 0 15 -5 40 -11 56 -6 15 -14 46 -19 68 -4 22 -13 54 -18 70 -6 17 -18 57
-27 90 -10 33 -22 71 -27 85 -6 14 -14 39 -18 55 -5 17 -18 55 -30 85 -12 30
-24 64 -27 75 -3 11 -11 35 -19 53 -8 17 -21 48 -29 67 -32 74 -48 111 -57
125 -4 8 -11 22 -14 30 -3 8 -24 56 -48 105 -24 50 -47 97 -50 105 -3 8 -15
29 -26 45 -10 17 -31 53 -45 80 -14 28 -35 64 -45 80 -11 17 -23 37 -27 45 -4
8 -43 68 -88 133 -44 66 -87 129 -95 141 -212 318 -728 834 -1046 1046 -12 8
-75 51 -141 95 -65 45 -125 84 -133 88 -8 4 -28 16 -45 27 -16 10 -52 31 -80
45 -27 14 -63 35 -80 45 -16 11 -37 23 -45 26 -32 13 -87 40 -133 67 -26 15
-56 27 -66 27 -10 0 -24 7 -31 15 -7 8 -19 15 -27 15 -8 0 -27 6 -41 14 -55
28 -128 58 -299 120 -104 37 -128 45 -213 67 -25 6 -61 17 -80 24 -54 19 -131
38 -175 42 -22 3 -54 11 -72 19 -17 8 -49 14 -71 14 -22 0 -62 6 -88 14 -64
18 -192 36 -328 46 -84 5 -112 11 -121 24 -11 14 -48 16 -346 16 -300 0 -335
-2 -345 -17z m576 -1354 c25 -6 65 -14 90 -19 71 -13 133 -31 162 -46 14 -8
33 -14 41 -14 18 0 178 -79 252 -124 82 -50 196 -139 270 -212 63 -62 185
-205 185 -218 0 -2 17 -31 38 -63 72 -108 154 -303 172 -405 5 -27 12 -53 16
-59 39 -63 36 -545 -4 -642 -7 -16 -12 -43 -12 -60 0 -18 -7 -41 -15 -51 -8
-11 -15 -29 -15 -41 0 -12 -7 -30 -15 -41 -8 -10 -15 -25 -15 -33 0 -19 -39
-99 -51 -107 -5 -3 -9 -13 -9 -23 0 -10 -12 -36 -27 -58 -16 -21 -32 -46 -38
-55 -33 -54 -95 -139 -130 -177 -100 -109 -260 -249 -315 -274 -8 -4 -28 -16
-45 -27 -32 -20 -160 -84 -210 -105 -16 -7 -47 -20 -68 -29 -21 -9 -45 -16
-55 -16 -9 0 -34 -6 -57 -14 -87 -30 -182 -40 -375 -40 -193 0 -288 10 -375
40 -23 8 -48 14 -57 14 -10 0 -34 7 -55 16 -21 9 -51 22 -68 29 -50 21 -178
85 -210 105 -16 11 -37 23 -45 27 -55 25 -215 165 -315 274 -35 39 -101 128
-130 177 -6 9 -23 36 -38 59 -15 24 -27 49 -27 57 0 8 -4 17 -9 20 -11 7 -51
88 -51 103 0 6 -6 24 -14 40 -21 42 -46 125 -46 151 0 13 -5 33 -12 45 -40 71
-42 573 -4 636 4 6 11 32 16 59 18 105 104 304 181 420 16 24 29 47 29 52 0 4
3 10 8 12 4 2 26 28 49 60 86 115 261 271 398 354 74 45 234 124 252 124 8 0
27 6 41 14 29 15 90 32 162 46 25 5 63 13 85 18 55 13 409 14 465 1z m750
-3690 c169 -20 205 -26 233 -37 16 -7 43 -12 60 -12 18 0 41 -7 51 -15 11 -8
29 -15 41 -15 12 0 30 -7 41 -15 10 -8 25 -15 33 -15 19 0 99 -39 107 -51 3
-5 12 -9 20 -9 8 0 33 -12 57 -27 23 -16 47 -30 53 -33 66 -31 317 -255 375
-335 44 -62 103 -148 115 -170 142 -260 195 -447 201 -722 3 -123 1 -158 -12
-182 -8 -17 -15 -39 -15 -49 0 -27 -36 -103 -85 -177 -18 -28 -115 -127 -146
-150 -8 -6 -69 -52 -136 -103 -66 -51 -124 -92 -127 -92 -3 0 -34 -19 -69 -43
-34 -24 -69 -46 -77 -50 -8 -4 -37 -20 -65 -37 -49 -29 -249 -129 -312 -156
-69 -30 -109 -48 -135 -61 -14 -7 -33 -13 -41 -13 -8 0 -28 -7 -43 -15 -16 -8
-38 -15 -49 -15 -11 -1 -31 -7 -45 -15 -14 -8 -36 -14 -50 -15 -14 0 -34 -6
-45 -14 -11 -7 -36 -16 -55 -18 -42 -6 -119 -24 -181 -44 -26 -8 -65 -14 -88
-14 -23 0 -70 -6 -104 -14 -217 -50 -741 -50 -979 0 -37 8 -84 14 -105 14 -20
0 -55 6 -78 14 -40 14 -118 32 -185 43 -19 3 -44 12 -55 19 -11 8 -31 14 -45
14 -14 1 -36 7 -50 15 -14 8 -37 14 -51 15 -14 0 -34 7 -45 15 -10 8 -27 15
-37 15 -11 0 -31 6 -45 13 -15 8 -42 21 -60 30 -19 9 -39 17 -46 17 -7 0 -84
36 -172 80 -165 84 -171 87 -242 133 -24 15 -46 27 -49 27 -3 0 -22 12 -42 28
-44 33 -70 49 -96 61 -12 5 -27 17 -35 26 -8 10 -33 29 -55 42 -22 14 -44 30
-50 37 -5 6 -30 27 -55 45 -25 19 -65 53 -88 75 -66 62 -162 217 -162 261 0 9
-7 29 -15 46 -13 24 -15 60 -12 197 4 166 16 260 43 337 8 23 14 48 14 57 0
10 7 34 16 55 9 21 22 52 29 68 53 128 111 228 214 370 32 44 233 245 245 245
4 0 33 19 64 43 31 24 64 47 72 50 8 4 29 16 45 27 17 11 36 22 43 25 6 3 18
7 25 10 6 3 32 16 56 30 24 14 51 25 60 25 9 0 25 7 35 15 11 8 29 15 41 15
12 0 30 7 41 15 10 8 33 15 51 15 17 0 44 5 60 12 26 10 82 19 233 37 99 12
1860 11 1960 0z"/>
</g>
</svg>
